<svg width="24" height="24" viewBox="0 0 24 24" fill="none" xmlns="http://www.w3.org/2000/svg">
<path fill-rule="evenodd" clip-rule="evenodd" d="M11.9997 24C5.37243 23.9998 0 18.6273 0 12C0 5.37268 5.37243 0.000154372 11.9997 0C12.5301 0.000155039 12.96 0.431982 12.96 0.959358V23.0406C12.96 23.5704 12.5299 23.9998 11.9997 24ZM14.64 6.36036C14.64 5.89624 15.017 5.52 15.48 5.52C15.9439 5.52 16.32 5.89389 16.32 6.36036V17.6396C16.32 18.1038 15.943 18.48 15.48 18.48C15.0161 18.48 14.64 18.1061 14.64 17.6396V6.36036ZM18 3.72317C18 3.2575 18.377 2.88 18.84 2.88C19.3039 2.88 19.68 3.25678 19.68 3.72317V20.2768C19.68 20.7425 19.303 21.12 18.84 21.12C18.3761 21.12 18 20.7432 18 20.2768V3.72317ZM21.36 9.72155C21.36 9.25678 21.737 8.88 22.2 8.88C22.6639 8.88 23.04 9.25629 23.04 9.72155V14.2784C23.04 14.7432 22.663 15.12 22.2 15.12C21.7361 15.12 21.36 14.7437 21.36 14.2784V9.72155Z" fill="currentColor"/>
</svg>
